<svg xmlns="http://www.w3.org/2000/svg" viewBox="0 0 800 520" font-family="'Space Grotesk', system-ui, sans-serif">
  <rect x="14" y="14" width="772" height="492" fill="#000000"/>
  <rect x="6" y="6" width="772" height="492" fill="#FFFFFF" stroke="#000000" stroke-width="4"/>

  <text x="32" y="50" font-family="'Archivo Black', sans-serif" font-size="22" fill="#000000">F1 score by model</text>
  <text x="32" y="74" font-size="14" fill="#333333">Higher is better. 70 articles, 15 topic descriptions.</text>

  <g transform="translate(200, 110)">
    <text x="-12" y="26" text-anchor="end" font-size="14" font-weight="700" fill="#000000">bge-small</text>
    <rect x="0" y="0" width="430" height="40" fill="#00D4FF" stroke="#000000" stroke-width="3"/>
    <text x="442" y="26" font-size="14" font-weight="700" fill="#000000">86.9%</text>
  </g>
  <g transform="translate(200, 165)">
    <text x="-12" y="26" text-anchor="end" font-size="14" fill="#000000">MiniLM-L12</text>
    <rect x="0" y="0" width="395" height="40" fill="#FFFFFF" stroke="#000000" stroke-width="3"/>
    <text x="407" y="26" font-size="14" fill="#000000">84.7%</text>
  </g>
  <g transform="translate(200, 220)">
    <text x="-12" y="26" text-anchor="end" font-size="14" font-weight="700" fill="#000000">NLI (BART)</text>
    <rect x="0" y="0" width="394" height="40" fill="#FF5757" stroke="#000000" stroke-width="3"/>
    <text x="406" y="26" font-size="14" font-weight="700" fill="#000000">84.6%</text>
  </g>
  <g transform="translate(200, 275)">
    <text x="-12" y="26" text-anchor="end" font-size="14" fill="#000000">MiniLM-L6</text>
    <rect x="0" y="0" width="386" height="40" fill="#FFFFFF" stroke="#000000" stroke-width="3"/>
    <text x="398" y="26" font-size="14" fill="#000000">84.1%</text>
  </g>
  <g transform="translate(200, 330)">
    <text x="-12" y="26" text-anchor="end" font-size="14" fill="#000000">gte-small</text>
    <rect x="0" y="0" width="384" height="40" fill="#FFFFFF" stroke="#000000" stroke-width="3"/>
    <text x="396" y="26" font-size="14" fill="#000000">84.0%</text>
  </g>
  <g transform="translate(200, 385)">
    <text x="-12" y="26" text-anchor="end" font-size="14" fill="#000000">gte-base</text>
    <rect x="0" y="0" width="314" height="40" fill="#FFFFFF" stroke="#000000" stroke-width="3"/>
    <text x="326" y="26" font-size="14" fill="#000000">79.6%</text>
  </g>

  <line x1="200" y1="440" x2="680" y2="440" stroke="#000000" stroke-width="2"/>
  <text x="194" y="462" font-size="12" fill="#333333">60%</text>
  <text x="354" y="462" font-size="12" fill="#333333">70%</text>
  <text x="514" y="462" font-size="12" fill="#333333">80%</text>
  <text x="672" y="462" font-size="12" fill="#333333">90%</text>
</svg>
