<?xml version="1.0" encoding="UTF-8"?>
<!-- Generator: Adobe Illustrator 24.1.2, SVG Export Plug-In . SVG Version: 6.00 Build 0)  -->
<svg version="1.1" id="Layer_1" xmlns="http://www.w3.org/2000/svg" xmlns:xlink="http://www.w3.org/1999/xlink" x="0px" y="0px" viewBox="0 0 33 33" style="enable-background:new 0 0 176 33;" xml:space="preserve">
<style type="text/css">
	.st0{fill:#FFFFFF;}
	.st1{fill:#000;}
</style>
<path class="st1" d="M28.6,9.3C28.6,9.3,28.6,9.3,28.6,9.3c0-0.3-0.1-0.6-0.4-0.8c0,0,0,0,0,0c0,0,0,0-0.1-0.1c0,0-0.1,0-0.1-0.1  c0,0,0,0,0,0L15.6,1.2c0,0-0.1,0-0.1,0C15.3,1,15.1,1,14.9,1c-0.1,0-0.2,0-0.3,0.1c-0.1,0-0.1,0.1-0.2,0.1L2,8.3c0,0,0,0,0,0  c0,0,0,0,0,0c0,0,0,0,0,0C1.8,8.4,1.7,8.5,1.7,8.6c0,0,0,0,0,0C1.5,8.8,1.4,9,1.4,9.3c0,0,0,0,0,0c0,0,0,0,0,0v14.3  c0,0.4,0.2,0.8,0.6,1l12.4,7.2c0,0,0,0,0.1,0c0,0,0,0,0,0c0.1,0,0.1,0.1,0.2,0.1c0,0,0,0,0,0c0.1,0,0.2,0,0.2,0s0.2,0,0.2,0  c0,0,0,0,0,0c0.1,0,0.1,0,0.2-0.1c0,0,0,0,0,0c0,0,0,0,0.1,0l12.4-7.2c0.4-0.2,0.6-0.6,0.6-1L28.6,9.3C28.6,9.4,28.6,9.3,28.6,9.3z   M6.3,8.9L14.7,4c0.2-0.1,0.4-0.1,0.5,0l8.4,4.9c0.4,0.2,0.4,0.7,0,0.9l-8.4,4.9c-0.2,0.1-0.4,0.1-0.5,0L6.3,9.8  C5.9,9.6,5.9,9.1,6.3,8.9z M13.5,27.4c0,0.4-0.4,0.7-0.8,0.5L4.3,23C4.1,22.9,4,22.7,4,22.5v-9.7c0-0.4,0.4-0.7,0.8-0.5l8.4,4.9  c0.2,0.1,0.3,0.3,0.3,0.5V27.4z M25.9,22.5c0,0.2-0.1,0.4-0.3,0.5l-8.4,4.9c-0.4,0.2-0.8-0.1-0.8-0.5v-9.7c0-0.2,0.1-0.4,0.3-0.5  l8.4-4.9c0.4-0.2,0.8,0.1,0.8,0.5V22.5z"/>
</svg>