<?xml version="1.0" encoding="windows-1252"?>
<!-- Generator: Adobe Illustrator 18.0.0, SVG Export Plug-In . SVG Version: 6.00 Build 0)  -->
<!DOCTYPE svg PUBLIC "-//W3C//DTD SVG 1.1//EN" "http://www.w3.org/Graphics/SVG/1.1/DTD/svg11.dtd">
<svg version="1.1" id="Capa_1" xmlns="http://www.w3.org/2000/svg" xmlns:xlink="http://www.w3.org/1999/xlink" x="0px" y="0px" viewBox="0 0 370.123 370.123" style="enable-background:new 0 0 370.123 370.123;" xml:space="preserve">
<path d="M321.321,18.74H310.78c0-10.352-8.39-18.74-18.74-18.74H78.083c-10.352,0-18.74,8.389-18.74,18.74H48.802  c-10.351,0-18.74,8.389-18.74,18.74c0,10.351,8.39,18.74,18.74,18.74h12.279l22.132,296.557c0.73,9.781,8.879,17.346,18.688,17.346  h166.322c9.809,0,17.957-7.564,18.686-17.346l22.133-296.557h12.279c10.351,0,18.74-8.39,18.74-18.74  C340.061,27.129,331.672,18.74,321.321,18.74z M119.297,332.643l-7.47-100.061h34.125c8.242,17.324,22.939,28.11,39.109,28.11  c16.17,0,30.867-10.786,39.109-28.11h34.125l-7.471,100.061H119.297z M263.007,169.469h-38.836  c-8.242-17.324-22.939-28.114-39.109-28.114c-16.17,0-30.867,10.79-39.109,28.114h-38.836L98.665,56.221h172.793L263.007,169.469z"/>
<g>
</g>
<g>
</g>
<g>
</g>
<g>
</g>
<g>
</g>
<g>
</g>
<g>
</g>
<g>
</g>
<g>
</g>
<g>
</g>
<g>
</g>
<g>
</g>
<g>
</g>
<g>
</g>
<g>
</g>
</svg>